<?xml version="1.0"?><svg xmlns="http://www.w3.org/2000/svg" viewBox="0 0 128 128"><g fill="#1d1d1b"><path d="m59.04 10.03c-1.32-.08-45.58-.33-46.16-.25s-1.49.74-1.49 1.73-.41 42.11-.33 44.17c0 0-.25.83.25 1.4.5.58 4.79 5.12 5.94 5.28 1.16.17 40.71 0 41.37 0s4.05-3.8 4.13-4.46.5-41.2.25-42.19-2.64-5.61-3.96-5.7zm-.99 45.58-43.27.08.08-42.11 43.6.41-.41 41.61zm0 9.41c-1.65-.25-39.47-.74-43.27-.66s-4.62 1.9-4.62 5.2c0 0-1.16 40.79-.91 42.11s5.04 6.36 5.94 6.52c.91.17 37.49 0 41.53-.17 4.05-.17 4.87-3.72 5.12-4.79s.66-39.14.66-40.29-2.81-7.68-4.46-7.93zm-.33 44.67s-1.32 1.24-1.57 1.24-43.43.17-43.43.17l.83-42.85 44.42.83-.25 40.62zm60.69-92.39c-.17-1.16-3.8-7.18-6.03-7.27-2.23-.08-39.39-.41-43.02-.25-3.63.17-3.63 3.88-3.63 5.7v40.87c0 1.57 4.54 6.77 5.53 6.94s36.83.5 41.78.41c4.95-.08 5.53-3.05 5.7-4.46.17-1.4-.17-40.79-.33-41.95zm-5.7 39.79-43.93-.17.08-43.76 43.93.83zm0 8.01c-.74-.25-39.14-.91-43.51-.66-4.38.25-4.13 3.39-4.05 4.46 0 0-.41 41.86-.17 42.61s7.6 6.69 7.6 6.69 35.42 0 39.14-.33 6.03-2.64 6.11-3.72c.08-1.07-.17-40.21-.33-41.2s-4.05-7.6-4.79-7.84zm-.49 45.42-44.42-.08.5-42.44s41.94 0 42.44.08 1.57 2.48 1.82 2.72c.25.25-.33 39.72-.33 39.72z"/><path d="m17.7 27.2c-.32-1.05.11-9.03.11-9.41s.88-1.65 2.59-1.71 5.01-.17 5.5.11.39 2.86.17 3.08-5.06 0-5.17.17 0 7.21-.06 7.65-2.97.66-3.14.11z"/><path d="m23.04 37.55c-.39-.54 2.42-1.87 2.86-1.65s10.84 8.97 10.9 9.8-1.6 2.26-2.04 2.2-11.28-9.74-11.72-10.35z"/><path d="m29.81 30.51c-.54-.54 1.76-2.09 2.53-1.93s13.71 12.77 13.65 13.21-1.32 1.6-1.87 1.54-13.82-12.33-14.31-12.83z"/><path d="m39.94 26.16c-.36-.47 1.87-1.76 2.7-1.71.83.06 7.1 7.54 7.05 7.93s-1.43.83-1.76.83-7.6-6.55-7.98-7.05z"/><path d="m78.91 39.81c-.43-.5 2.2-2.48 2.59-2.42s13.65 12.94 13.6 13.54-1.1 1.98-1.49 1.98-14.37-12.72-14.7-13.1z"/><path d="m91.02 41.63c-.22-.4 2.37-2.2 2.75-2.04s11.01 11.23 11.06 11.61-1.87 2.09-2.04 1.98-11.45-10.95-11.78-11.56z"/><path d="m97.35 39.42c-.08-.36 1.76-1.87 2.31-1.87s8.42 8.59 8.48 9.03-1.1 2.04-1.49 2.04-9.14-8.48-9.3-9.19z"/><path d="m99.55 32.93c-.31-.8 1.49-1.98 1.93-1.98s6.28 6 6.33 6.5-.61 1.82-1.16 1.87-6.83-5.67-7.1-6.39z"/><path d="m102.58 28.31c-.11-.27 1.87-2.31 2.31-2.31s4.07 4.35 4.13 4.68-.77 1.6-1.05 1.65-5.12-3.36-5.39-4.02z"/><path d="m103.85 21.15c-.16-.42 1.32-1.98 1.87-1.98s3.52 2.86 3.52 3.52-.11 2.15-.5 2.15-4.73-3.25-4.9-3.69z"/><path d="m16.88 72.45c.28-.44 2.92-.28 3.19.11s.28 11.12.06 11.5-2.92.66-3.08.44-.44-11.61-.17-12.06z"/><path d="m24.03 95.68c-.24-.31 2.04-2.15 2.48-2.09s7.21 6.39 7.38 6.99-1.05 1.82-1.38 1.82-8.09-6.22-8.48-6.72z"/><path d="m28.71 86.49c-.25-.49 2.09-2.53 2.64-2.59s14.09 11.67 14.26 12.22-1.32 2.04-1.6 2.04-15.08-11.23-15.3-11.67z"/><path d="m37.19 79.61c-.19-.52 2.48-2.42 2.92-2.48s6.72 6.88 6.83 7.32-.22 2.53-.55 2.59-8.92-6.66-9.19-7.43z"/><path d="m91.02 103.17c-.15-.42 1.82-1.6 2.2-1.6s5.61 5.78 5.56 6.17-1.6 1.38-2.2 1.21-5.34-5.17-5.56-5.78z"/><path d="m95.1 98.21c-.12-.27 2.04-1.93 2.48-1.87s7.43 7.93 7.32 8.48-1.49 1.49-1.98 1.38-7.54-7.38-7.82-7.98z"/><path d="m98.4 94.36c-.29-.37 2.2-2.59 2.7-2.37s7.65 7.93 7.65 8.59-1.82 1.76-2.04 1.71-8.09-7.65-8.31-7.93z"/><path d="m100.71 88.25c-.23-.32 2.37-1.87 2.81-1.76s5.28 5.5 5.17 5.89-1.76.77-2.2.77-5.5-4.51-5.78-4.9z"/><path d="m102.47 82.75c-.06-.27 1.93-2.31 2.53-2.2s3.8 4.4 4.02 5.01-.72 1.6-1.21 1.71-5.23-4.02-5.34-4.51z"/><path d="m103.41 75.04c-.53-.74 2.15-2.37 2.81-2.26s2.86 3.47 2.86 3.96.17 1.6-.5 1.76-4.9-3.08-5.17-3.47z"/></g></svg>